<?xml version="1.0" encoding="UTF-8"?>
<!DOCTYPE svg PUBLIC "-//W3C//DTD SVG 1.1//EN" "http://www.w3.org/Graphics/SVG/1.1/DTD/svg11.dtd">
<!-- Creator: CorelDRAW X7 -->
<svg xmlns="http://www.w3.org/2000/svg" xml:space="preserve" width="7in" height="1.2in" version="1.1" style="shape-rendering:geometricPrecision; text-rendering:geometricPrecision; image-rendering:optimizeQuality; fill-rule:evenodd; clip-rule:evenodd"
viewBox="0 0 7000 1200"
 xmlns:xlink="http://www.w3.org/1999/xlink">
 <defs>
  <style type="text/css">
   <![CDATA[
    .fil2 {fill:#0CC896}
    .fil0 {fill:#373435;fill-rule:nonzero}
    .fil1 {fill:#0CC896;fill-rule:nonzero}
   ]]>
  </style>
 </defs>
 <g id="Layer_x0020_1">
  <metadata id="CorelCorpID_0Corel-Layer"/>
  <path class="fil0" d="M5376 266c60,0 116,15 169,45 53,29 94,70 124,121 29,52 44,107 44,166 0,60 -15,116 -45,168 -30,52 -70,93 -122,122 -51,29 -108,44 -170,44 -91,0 -169,-32 -234,-97 -64,-65 -96,-143 -96,-236 0,-99 36,-181 109,-247 64,-58 137,-86 221,-86zm2 149c-50,0 -91,17 -124,52 -33,34 -49,78 -49,132 0,55 16,99 49,133 32,34 73,52 123,52 50,0 92,-18 125,-52 33,-35 50,-79 50,-133 0,-55 -17,-99 -49,-133 -33,-34 -74,-51 -125,-51z"/>
  <path class="fil0" d="M4610 266c60,0 116,15 169,45 53,29 94,70 124,121 30,52 44,107 44,166 0,60 -15,116 -44,168 -30,52 -71,93 -122,122 -52,29 -109,44 -171,44 -91,0 -169,-32 -233,-97 -65,-65 -97,-143 -97,-236 0,-99 36,-181 109,-247 64,-58 138,-86 221,-86zm2 149c-49,0 -91,17 -124,52 -32,34 -49,78 -49,132 0,55 16,99 49,133 32,34 74,52 124,52 49,0 91,-18 124,-52 33,-35 50,-79 50,-133 0,-55 -16,-99 -49,-133 -32,-34 -74,-51 -125,-51z"/>
  <path class="fil0" d="M3680 36l0 315c29,-28 60,-50 94,-64 33,-14 69,-21 107,-21 83,0 153,31 211,93 58,63 87,143 87,241 0,94 -30,173 -90,237 -59,63 -130,95 -213,95 -36,0 -70,-7 -102,-20 -31,-13 -62,-34 -94,-63l0 67 -159 0 0 -880 159 0zm168 376c-50,0 -92,17 -125,51 -33,34 -50,79 -50,134 0,56 17,102 50,137 33,35 75,52 125,52 48,0 89,-18 122,-53 34,-36 50,-81 50,-135 0,-55 -16,-99 -49,-134 -32,-35 -74,-52 -123,-52z"/>
  <path class="fil0" d="M6925 371l-99 99c-40,-40 -76,-60 -108,-60 -18,0 -32,4 -42,12 -11,7 -16,17 -16,28 0,8 4,16 10,23 6,8 22,17 48,30l58 29c61,30 104,61 127,92 22,32 34,68 34,111 0,56 -21,103 -62,140 -42,38 -97,57 -167,57 -93,0 -167,-36 -222,-109l98 -106c19,21 41,39 66,52 25,14 48,21 67,21 21,0 38,-5 51,-16 13,-10 19,-21 19,-34 0,-25 -23,-49 -69,-72l-54 -27c-103,-52 -154,-116 -154,-194 0,-50 19,-93 58,-128 38,-36 88,-53 148,-53 41,0 80,9 117,27 36,18 67,44 92,78z"/>
  <polygon class="fil0" points="5844,36 6003,36 6003,543 6238,281 6437,281 6165,584 6471,916 6273,916 6003,624 6003,916 5844,916 "/>
  <g id="_503472600">
   <path class="fil1" d="M2916 281l158 0 0 544c0,107 -21,186 -65,236 -58,69 -145,103 -262,103 -62,0 -115,-8 -158,-23 -42,-16 -78,-39 -107,-69 -29,-30 -51,-67 -65,-110l176 0c16,18 36,31 61,40 24,9 54,14 87,14 43,0 78,-7 104,-20 26,-13 44,-30 55,-51 11,-21 16,-57 16,-108 -28,28 -57,49 -88,61 -31,12 -66,18 -105,18 -85,0 -158,-30 -217,-92 -59,-61 -88,-139 -88,-233 0,-101 31,-182 93,-243 57,-55 125,-82 203,-82 37,0 72,6 104,20 33,13 66,35 98,66l0 -71zm-166 134c-51,0 -93,17 -125,50 -33,34 -49,76 -49,127 0,52 16,96 50,129 33,34 76,51 127,51 49,0 90,-17 122,-50 32,-33 49,-76 49,-129 0,-53 -17,-95 -49,-128 -33,-33 -74,-50 -125,-50z"/>
   <path class="fil1" d="M1839 36l159 0 0 880 -159 0 0 -67c-31,29 -62,50 -94,63 -31,13 -65,20 -102,20 -82,0 -153,-32 -213,-95 -60,-64 -90,-143 -90,-237 0,-98 29,-178 87,-241 58,-62 129,-93 212,-93 38,0 74,7 107,21 34,14 64,36 93,64l0 -315zm-168 376c-49,0 -90,17 -123,52 -32,35 -49,79 -49,134 0,54 17,99 50,135 33,35 74,53 123,53 50,0 92,-17 125,-52 33,-35 49,-81 49,-137 0,-55 -16,-100 -49,-134 -33,-34 -75,-51 -126,-51z"/>
   <polygon class="fil1" points="3218,281 3377,281 3377,916 3218,916 "/>
   <polygon class="fil1" points="2142,281 2301,281 2301,916 2142,916 "/>
   <polygon class="fil1" points="2142,181 2301,181 2301,36 2142,36 "/>
   <polygon class="fil1" points="3218,181 3377,181 3377,36 3218,36 "/>
  </g>
  <path class="fil2" d="M209 468c0,0 24,-134 156,-202 13,-7 27,-13 41,-18l1 0c22,-7 47,-13 75,-17 9,0 18,-1 28,-1 9,0 19,1 28,2 25,-51 68,-92 119,-116 127,-58 276,-3 334,123 69,3 130,47 157,111 38,91 -6,196 -97,234 66,26 110,89 110,160 0,95 -76,172 -171,172l-164 0 -7 0 -412 0 0 0 -137 0c-88,1 -167,-55 -195,-138 -38,-108 19,-225 127,-262 1,-16 3,-32 7,-48zm279 -168c0,0 -165,10 -212,184 -4,18 -6,36 -6,55l0 31 -28 6c-64,13 -110,69 -110,134 0,76 62,138 138,138l137 0 412 0 0 0 171 0c57,0 103,-46 103,-103 0,-57 -46,-103 -103,-103 1,0 -1,0 -3,0l-43 1 9 -42c5,-27 3,-54 -7,-79 -29,-70 -109,-104 -179,-76l-29 12 -14 -28c-41,-81 -124,-131 -214,-131 -8,0 -15,0 -22,1zm331 67c-17,0 -33,2 -49,6 -38,-59 -95,-104 -162,-126 54,-86 167,-111 253,-57 35,22 62,56 75,96l9 25 26 -2c3,-1 5,-1 10,-2 62,0 112,50 112,111 0,48 -30,90 -75,105 -23,-91 -105,-156 -199,-156z"/>
 </g>
</svg>
