<?xml version="1.0" encoding="UTF-8"?>
<!DOCTYPE svg PUBLIC "-//W3C//DTD SVG 1.1//EN" "http://www.w3.org/Graphics/SVG/1.1/DTD/svg11.dtd">
<!-- Creator: CorelDRAW X7 -->
<svg xmlns="http://www.w3.org/2000/svg" xml:space="preserve" width="2.1in" height="1.2in" version="1.1" style="shape-rendering:geometricPrecision; text-rendering:geometricPrecision; image-rendering:optimizeQuality; fill-rule:evenodd; clip-rule:evenodd"
viewBox="0 0 2100 1200"
 xmlns:xlink="http://www.w3.org/1999/xlink">
 <defs>
  <style type="text/css">
   <![CDATA[
    .fil0 {fill:#00A859;fill-rule:nonzero}
   ]]>
  </style>
 </defs>
 <g id="Layer_x0020_1">
  <metadata id="CorelCorpID_0Corel-Layer"/>
  <path class="fil0" d="M1601 767c-3,0 -6,0 -9,0 -2,0 -5,0 -8,0 -3,1 -6,1 -8,2 -3,0 -6,1 -9,1 -2,1 -5,1 -8,2 -2,1 -5,2 -8,3 -2,1 -5,2 -8,3 -2,1 -5,2 -8,4l-35 16 -15 8 -19 8 -1 -20 -1 -17 -2 -39c-2,-17 -4,-34 -8,-51 -5,-17 -11,-33 -18,-49 -7,-15 -16,-30 -26,-44 -10,-14 -22,-27 -35,-39 -12,-12 -26,-23 -41,-32 -14,-9 -29,-17 -46,-23 -15,-7 -32,-11 -49,-15 -17,-3 -34,-5 -52,-5 -5,0 -9,1 -13,1 -4,0 -9,0 -13,1 -3,0 -8,0 -12,1 -4,1 -8,1 -13,2 -3,1 -7,2 -12,3 -4,1 -8,2 -12,3 -5,1 -9,3 -13,4 -4,1 -8,3 -12,4l0 0 -24 10 -10 4 -13 5 -5 -13 -5 -11 -9 -24c-6,-15 -13,-29 -21,-43 -8,-14 -17,-27 -27,-39 -10,-13 -21,-24 -32,-35 -12,-11 -24,-21 -37,-30l-1 0c-13,-9 -26,-17 -41,-23 -14,-7 -29,-13 -44,-18 -15,-4 -30,-8 -46,-10 -15,-2 -31,-4 -47,-4 -21,0 -42,2 -61,6 -21,4 -40,10 -59,17 -19,8 -37,18 -54,29 -17,11 -33,23 -48,38 -14,14 -28,29 -39,46 -12,17 -22,35 -31,53 -8,19 -14,38 -19,58 -4,19 -7,40 -8,60l-1 26 0 11 -1 14 -13 0 -11 -1 -18 0 0 0 -8 0c-15,0 -29,2 -44,4 -14,3 -28,8 -41,13 -14,6 -27,13 -39,21 -12,8 -24,17 -34,28 -11,10 -20,22 -28,34 -8,12 -15,25 -21,39 -6,13 -10,27 -13,42 -2,14 -4,28 -4,43 0,16 2,30 4,44 3,15 7,29 13,42 6,14 13,27 21,39 8,12 17,24 28,34 10,11 22,20 34,28 12,8 25,15 39,21 13,5 27,10 41,13 15,2 29,4 44,4l12 0 14 0 0 0 1196 0 0 0 14 0 11 0c11,0 21,-1 30,-3 10,-2 20,-5 29,-9 9,-4 18,-8 26,-14 9,-6 17,-12 24,-19l0 0c14,-14 25,-31 33,-50 8,-18 12,-38 12,-59l0 -6 0 0c-1,-9 -2,-18 -4,-26 -2,-10 -4,-18 -8,-27 -4,-9 -8,-18 -14,-26 -6,-9 -12,-16 -19,-23l0 0c-7,-8 -15,-14 -24,-20 -8,-5 -17,-10 -26,-14 -8,-3 -17,-6 -26,-8 -9,-2 -18,-3 -27,-4l0 1 -6 0zm238 -122l0 -4 0 -1 0 -7 0 0c0,-14 -1,-27 -4,-40 -3,-13 -6,-25 -11,-37l0 -1c-5,-12 -12,-23 -19,-34 -7,-11 -16,-21 -25,-31 -10,-9 -20,-18 -31,-25 -11,-8 -23,-14 -35,-19 -12,-5 -24,-9 -37,-11 -13,-3 -26,-4 -40,-4l0 0c-4,0 -6,0 -8,0 -2,0 -5,0 -8,0l0 0c-2,1 -5,1 -7,1l0 0c-3,0 -5,1 -8,1 -3,1 -5,1 -8,2 -2,0 -5,1 -7,1l0 0c-3,1 -6,1 -8,2 -1,0 -4,1 -7,2l-34 11 -15 5 -18 5 0 -19 0 -15 0 -36 0 -1 0 0 0 -1 0 -1c0,-17 -2,-34 -5,-51 -3,-17 -8,-33 -15,-49 -6,-16 -14,-31 -24,-45 -9,-15 -20,-28 -33,-40 -12,-12 -25,-23 -39,-33 -15,-9 -30,-17 -46,-24 -15,-6 -32,-11 -49,-15 -16,-3 -33,-5 -51,-5 -14,0 -28,1 -41,3 -13,2 -26,5 -39,10 -13,4 -26,9 -38,15 -12,6 -23,13 -34,21l-1 0c-10,7 -19,16 -29,24 -9,9 -17,18 -25,28 -7,9 -13,19 -19,28 -4,7 -8,14 -11,22 7,7 15,14 22,22 9,10 18,20 27,31 8,11 16,22 23,33 5,8 10,17 14,25l1 0c4,-1 7,-1 10,-2 3,-1 7,-1 11,-2 5,-1 11,-2 17,-3 5,-1 11,-1 17,-2 7,-1 12,-1 18,-1 6,-1 12,-1 17,-1 24,0 48,3 71,7 24,4 46,11 68,20 23,9 44,20 64,32 20,13 39,28 56,44 15,14 29,29 41,46 13,16 24,33 34,52 9,16 16,33 22,50 5,13 9,26 12,40 1,-1 3,-1 4,-1 5,-1 9,-2 14,-2 4,-1 9,-1 14,-1 5,-1 10,-1 14,-1l11 0 14 0 0 2c11,1 21,2 31,5 15,3 29,7 42,13 16,6 31,14 45,24 14,9 27,20 39,32l0 0c12,11 22,24 32,38 9,14 17,29 23,45 6,13 11,28 14,42 2,10 4,21 5,31l1 0 0 14 0 11c0,8 0,15 -1,22 -1,7 -1,15 -3,22 0,2 -1,4 -1,7 2,-1 4,-1 6,-1 8,-2 16,-5 24,-8 8,-3 16,-8 24,-13 8,-5 15,-11 21,-18 7,-6 13,-14 18,-21 5,-8 10,-16 13,-25l0 0c4,-8 6,-17 8,-26 2,-9 3,-18 3,-28 0,-7 -1,-15 -2,-22 -1,-7 -3,-15 -5,-21 -2,-7 -5,-14 -8,-21 -3,-6 -7,-13 -11,-18 -5,-6 -9,-12 -15,-17 -5,-6 -10,-10 -16,-15 -6,-4 -13,-8 -19,-12 -7,-3 -13,-6 -20,-8l-20 -7 -8 -2 -10 -4 1 -10 0 -9 2 -20 0 0zm-914 -429c4,-8 9,-16 14,-24 8,-12 16,-23 25,-34 10,-13 21,-25 33,-36 12,-11 24,-21 37,-31 16,-11 32,-21 49,-29 17,-9 34,-16 52,-22 18,-5 37,-10 55,-13 19,-3 38,-4 57,-4 24,0 48,2 71,7 24,5 47,12 69,21 22,9 43,20 63,33 20,14 39,29 55,46 15,15 29,31 41,49 12,17 23,35 32,55 8,17 15,34 20,53 4,14 7,28 10,42 2,0 4,0 6,0 3,-1 7,-1 11,-1 5,0 9,0 12,0l0 0c20,0 40,2 59,5 20,4 39,10 58,18l0 0c18,8 36,17 52,28 17,11 33,24 47,38l0 0c14,14 26,29 37,46 11,16 21,34 28,52 7,17 13,34 17,52 3,16 5,31 6,47 7,3 12,7 18,10 8,5 16,11 23,17 9,7 17,15 24,22 8,8 15,17 21,26 8,10 14,21 20,32 6,11 10,23 14,35 4,12 7,25 9,37 2,13 3,26 3,38 0,16 -1,32 -5,48 -3,16 -7,31 -13,46 -7,15 -14,29 -23,42 -9,14 -19,26 -31,37 -11,12 -23,22 -37,31 -13,9 -27,16 -42,22l0 0c-15,7 -30,11 -46,14 -15,3 -31,5 -48,5l-11 0 -12 0 -1 1c-1,2 -3,5 -5,7l0 0c-3,3 -5,6 -8,9 -3,3 -5,6 -8,9l0 0c-12,12 -25,22 -39,32 -14,9 -29,17 -45,24 -15,6 -31,11 -48,14 -16,3 -33,5 -50,5l-11 0 -14 0 0 0 -1196 0 0 0 -14 0 -12 0c-21,0 -43,-2 -63,-6 -22,-4 -42,-11 -62,-19 -20,-8 -39,-18 -57,-30 -18,-12 -34,-26 -49,-41l0 0c-15,-15 -29,-32 -41,-50 -12,-17 -22,-36 -30,-56 -8,-20 -15,-40 -19,-62 -4,-20 -6,-42 -6,-64 0,-21 2,-43 6,-63 4,-22 11,-42 19,-62 8,-20 18,-39 30,-56 12,-18 26,-35 41,-50 13,-14 28,-26 44,-37 16,-11 33,-21 50,-29 16,-7 32,-13 50,-18 13,-4 27,-7 40,-9 3,-19 8,-38 13,-57 7,-22 15,-44 25,-65 11,-22 24,-43 38,-63 15,-20 31,-39 49,-57 19,-18 41,-35 63,-50 23,-15 47,-27 72,-37 25,-10 50,-18 77,-23 26,-5 53,-8 81,-8 19,0 38,2 57,4l0 0c20,3 39,7 57,12 17,5 34,11 51,18 12,5 24,11 35,17z"/>
 </g>
</svg>
