<?xml version="1.0" encoding="UTF-8"?>
<!DOCTYPE svg PUBLIC "-//W3C//DTD SVG 1.1//EN" "http://www.w3.org/Graphics/SVG/1.1/DTD/svg11.dtd">
<!-- Creator: CorelDRAW X7 -->
<svg xmlns="http://www.w3.org/2000/svg" xml:space="preserve" width="7.9in" height="1.2in" version="1.1" style="shape-rendering:geometricPrecision; text-rendering:geometricPrecision; image-rendering:optimizeQuality; fill-rule:evenodd; clip-rule:evenodd"
viewBox="0 0 7900 1200"
 xmlns:xlink="http://www.w3.org/1999/xlink">
 <defs>
  <style type="text/css">
   <![CDATA[
    .fil0 {fill:#373435;fill-rule:nonzero}
    .fil1 {fill:#00A859;fill-rule:nonzero}
   ]]>
  </style>
 </defs>
 <g id="Layer_x0020_1">
  <metadata id="CorelCorpID_0Corel-Layer"/>
  <path class="fil0" d="M6326 266c60,0 116,15 169,45 53,29 94,70 124,121 29,52 44,107 44,166 0,60 -15,116 -45,168 -30,52 -70,93 -122,122 -51,29 -108,44 -170,44 -91,0 -169,-32 -234,-97 -64,-65 -96,-143 -96,-236 0,-99 36,-181 109,-247 64,-58 137,-86 221,-86zm2 149c-50,0 -91,17 -124,52 -33,34 -49,78 -49,132 0,55 16,99 49,133 32,34 73,52 123,52 50,0 92,-18 125,-52 33,-35 50,-79 50,-133 0,-55 -17,-99 -49,-133 -33,-34 -74,-51 -125,-51z"/>
  <path class="fil0" d="M5560 266c60,0 116,15 169,45 53,29 94,70 124,121 30,52 44,107 44,166 0,60 -15,116 -44,168 -30,52 -71,93 -122,122 -52,29 -109,44 -171,44 -91,0 -169,-32 -233,-97 -65,-65 -97,-143 -97,-236 0,-99 36,-181 109,-247 64,-58 138,-86 221,-86zm2 149c-49,0 -91,17 -124,52 -32,34 -49,78 -49,132 0,55 16,99 49,133 32,34 74,52 124,52 49,0 91,-18 124,-52 33,-35 50,-79 50,-133 0,-55 -16,-99 -49,-133 -32,-34 -74,-51 -125,-51z"/>
  <path class="fil0" d="M4630 36l0 315c29,-28 60,-50 94,-64 33,-14 69,-21 107,-21 83,0 153,31 211,93 58,63 87,143 87,241 0,94 -30,173 -90,237 -59,63 -130,95 -213,95 -36,0 -70,-7 -102,-20 -31,-13 -62,-34 -94,-63l0 67 -159 0 0 -880 159 0zm168 376c-50,0 -92,17 -125,51 -33,34 -50,79 -50,134 0,56 17,102 50,137 33,35 75,52 125,52 48,0 89,-18 122,-53 34,-36 50,-81 50,-135 0,-55 -16,-99 -49,-134 -32,-35 -74,-52 -123,-52z"/>
  <path class="fil0" d="M7875 371l-99 99c-40,-40 -76,-60 -108,-60 -18,0 -32,4 -42,12 -11,7 -16,17 -16,28 0,8 4,16 10,23 6,8 22,17 48,30l58 29c61,30 104,61 127,92 22,32 34,68 34,111 0,56 -21,103 -62,140 -42,38 -97,57 -167,57 -93,0 -167,-36 -222,-109l98 -106c19,21 41,39 66,52 25,14 48,21 67,21 21,0 38,-5 51,-16 13,-10 19,-21 19,-34 0,-25 -23,-49 -69,-72l-54 -27c-103,-52 -154,-116 -154,-194 0,-50 19,-93 58,-128 38,-36 88,-53 148,-53 41,0 80,9 117,27 36,18 67,44 92,78z"/>
  <polygon class="fil0" points="6794,36 6953,36 6953,543 7188,281 7387,281 7115,584 7421,916 7223,916 6953,624 6953,916 6794,916 "/>
  <path class="fil1" d="M3866 281l158 0 0 544c0,107 -21,186 -65,236 -58,69 -145,103 -262,103 -62,0 -115,-8 -158,-23 -42,-16 -78,-39 -107,-69 -29,-30 -51,-67 -65,-110l176 0c16,18 36,31 61,40 24,9 54,14 87,14 43,0 78,-7 104,-20 26,-13 44,-30 55,-51 11,-21 16,-57 16,-108 -28,28 -57,49 -88,61 -31,12 -66,18 -105,18 -85,0 -158,-30 -217,-92 -59,-61 -88,-139 -88,-233 0,-101 31,-182 93,-243 57,-55 125,-82 203,-82 37,0 72,6 104,20 33,13 66,35 98,66l0 -71zm-166 134c-51,0 -93,17 -125,50 -33,34 -49,76 -49,127 0,52 16,96 50,129 33,34 76,51 127,51 49,0 90,-17 122,-50 32,-33 49,-76 49,-129 0,-53 -17,-95 -49,-128 -33,-33 -74,-50 -125,-50z"/>
  <path class="fil1" d="M2789 36l159 0 0 880 -159 0 0 -67c-31,29 -62,50 -94,63 -31,13 -65,20 -102,20 -82,0 -153,-32 -213,-95 -60,-64 -90,-143 -90,-237 0,-98 29,-178 87,-241 58,-62 129,-93 212,-93 38,0 74,7 107,21 34,14 64,36 93,64l0 -315zm-168 376c-49,0 -90,17 -123,52 -32,35 -49,79 -49,134 0,54 17,99 50,135 33,35 74,53 123,53 50,0 92,-17 125,-52 33,-35 49,-81 49,-137 0,-55 -16,-100 -49,-134 -33,-34 -75,-51 -126,-51z"/>
  <polygon class="fil1" points="4168,281 4327,281 4327,916 4168,916 "/>
  <polygon class="fil1" points="3092,281 3251,281 3251,916 3092,916 "/>
  <polygon class="fil1" points="3092,181 3251,181 3251,36 3092,36 "/>
  <polygon class="fil1" points="4168,181 4327,181 4327,36 4168,36 "/>
  <path class="fil1" d="M1574 766c-4,0 -7,0 -9,0 -3,0 -6,0 -9,1 -2,0 -5,0 -8,1 -3,0 -6,1 -8,1 -3,1 -6,2 -8,2 -3,1 -6,2 -8,3 -3,1 -5,2 -8,3 -3,1 -5,2 -8,4l-36 17 -15 7 -18 9 -2 -21 -1 -17 -2 -39c-1,-17 -4,-34 -8,-51 -4,-17 -10,-33 -17,-48 -8,-16 -17,-31 -27,-45 -10,-14 -22,-27 -34,-39 -13,-12 -26,-22 -41,-32 -15,-9 -30,-17 -46,-23 -16,-6 -33,-11 -50,-14 -16,-4 -34,-5 -51,-5 -5,0 -10,0 -14,0 -4,0 -8,0 -12,1 -4,0 -8,1 -13,1 -4,1 -8,2 -12,2 -4,1 -8,2 -12,3 -5,1 -9,2 -13,3 -5,2 -9,3 -12,4 -4,1 -8,3 -12,4l0 0 -25 10 -10 4 -13 5 -5 -13 -4 -10 -10 -25c-6,-15 -13,-29 -20,-43 -9,-14 -18,-27 -27,-39 -10,-12 -21,-24 -33,-35 -11,-10 -24,-20 -37,-29l0 -1c-13,-8 -27,-16 -41,-23 -14,-7 -29,-13 -44,-17 -15,-5 -31,-8 -46,-11 -16,-2 -32,-3 -48,-3 -21,0 -41,2 -61,5 -20,4 -40,10 -58,18 -19,7 -37,17 -54,28 -17,11 -33,24 -48,38 -15,14 -28,30 -40,46 -12,17 -22,35 -30,53 -8,19 -15,38 -19,58 -5,20 -8,40 -8,61l-1 25 -1 12 0 13 -14 0 -11 0 -18 -1 0 0 -7 0c-15,0 -30,2 -44,5 -15,3 -29,7 -42,12 -14,6 -27,13 -39,21 -12,8 -23,18 -34,28 -10,11 -20,22 -28,34 -8,12 -15,25 -21,39 -5,13 -9,27 -12,42 -3,14 -4,29 -4,44 0,15 1,30 4,44 3,14 7,28 12,42 6,13 13,26 21,38 8,12 18,24 28,34 11,11 22,20 34,28 12,9 25,15 39,21 13,6 27,10 42,13 14,3 29,4 44,4l11 0 14 0 0 0 1196 0 0 0 14 0 12 0c10,0 20,-1 30,-3 10,-2 19,-5 28,-9 10,-3 19,-8 27,-14 8,-5 16,-12 23,-19l0 0c14,-14 26,-31 34,-50 7,-18 11,-38 11,-59l0 -6 0 0c0,-9 -1,-17 -3,-26 -2,-9 -5,-18 -8,-26 -4,-10 -9,-19 -14,-27 -6,-8 -13,-16 -20,-23l0 0c-7,-8 -15,-14 -23,-20 -8,-5 -17,-10 -27,-14 -8,-3 -17,-6 -26,-8 -9,-2 -17,-3 -26,-3l0 0 -6 0zm237 -122l0 -4 0 -1 0 -7 0 0c0,-14 -1,-27 -4,-40 -2,-13 -6,-25 -11,-37l0 0c-5,-13 -11,-24 -19,-35 -7,-11 -15,-21 -25,-31 -9,-9 -20,-18 -31,-25 -10,-7 -22,-14 -34,-19 -12,-5 -25,-8 -38,-11 -13,-3 -26,-4 -40,-4l0 0c-3,0 -6,0 -8,0 -2,0 -4,0 -7,1l0 0c-3,0 -5,0 -8,0l0 0c-2,1 -5,1 -8,1 -2,1 -5,1 -7,2 -3,0 -5,1 -8,1l0 0c-3,1 -5,2 -7,2 -2,1 -5,1 -8,2l-34 11 -15 5 -18 6 0 -19 0 -16 1 -36 0 -1 0 0 0 -1 0 0c0,-18 -2,-35 -5,-52 -4,-17 -9,-33 -15,-49 -7,-16 -15,-31 -24,-45 -10,-14 -21,-28 -33,-40 -12,-12 -26,-23 -40,-33 -14,-9 -29,-17 -45,-24 -16,-6 -32,-11 -49,-15 -17,-3 -34,-5 -52,-5 -14,0 -27,1 -40,3 -14,3 -27,6 -40,10 -13,4 -25,9 -37,15 -12,6 -24,13 -35,21l0 0c-10,8 -20,16 -29,25 -9,8 -18,18 -25,28 -7,8 -14,18 -20,28 -4,6 -7,14 -11,21 8,7 15,14 22,22 10,10 19,20 27,31 8,11 16,22 23,33 5,9 10,17 15,26l0 0c4,-1 7,-2 10,-3 3,0 7,-1 11,-2 6,-1 11,-2 17,-3 6,-1 12,-1 18,-2 6,0 12,-1 18,-1 6,0 12,-1 17,-1 24,0 47,3 70,7 24,5 47,11 69,20 22,9 43,20 63,32 20,13 39,28 56,44 15,14 29,30 42,46 12,16 23,34 33,52 9,16 16,33 23,50 4,13 8,26 11,40 2,0 3,-1 4,-1 5,-1 10,-1 14,-2 5,0 10,-1 15,-1 5,0 9,0 14,0l11 0 14 0 0 1c10,1 20,3 31,5 14,3 28,8 42,13 15,7 30,15 44,24 14,9 27,20 39,32l0 0c12,12 23,25 32,39 9,14 17,29 24,44 5,14 10,28 13,42 2,11 4,21 5,31l1 0 0 14 0 11c0,8 0,15 0,22 -1,8 -2,15 -3,22 -1,2 -1,5 -2,7 2,0 4,-1 6,-1 9,-2 17,-5 24,-8 9,-3 17,-8 24,-13 8,-5 15,-11 22,-17 7,-7 13,-14 18,-22 5,-8 9,-16 13,-24l0 0c3,-9 6,-18 8,-27 1,-9 2,-18 2,-28 0,-7 0,-15 -1,-22 -1,-7 -3,-14 -5,-21 -3,-7 -5,-14 -9,-20 -3,-7 -7,-13 -11,-19 -4,-6 -9,-12 -14,-17 -5,-5 -11,-10 -17,-15 -6,-4 -12,-8 -19,-11 -6,-4 -13,-7 -20,-9l-19 -6 -8 -3 -10 -4 0 -10 1 -9 1 -20 0 0zm-914 -429c5,-8 9,-16 14,-24 8,-12 16,-23 25,-34 10,-13 22,-25 33,-36 12,-11 25,-21 38,-31 15,-10 31,-20 48,-29 17,-8 35,-16 53,-21 18,-6 36,-10 55,-13 19,-3 38,-5 56,-5 25,0 49,3 72,7 23,5 46,12 68,21 22,9 44,21 63,34 20,13 39,28 56,45 15,15 28,31 41,49 12,17 22,35 31,55 8,17 15,35 20,53 4,14 8,28 10,42 2,0 4,0 6,0 4,0 7,-1 12,-1 5,0 8,0 11,0l0 0c21,0 41,2 60,6 20,4 39,9 57,17l0 0c19,8 36,17 53,28 17,11 32,24 46,38l0 0c14,14 27,29 38,46 11,16 20,34 28,52 7,17 13,34 16,53 4,15 6,30 7,46 6,4 12,7 18,11 8,5 15,10 23,16 8,7 16,15 24,23 7,7 14,16 21,25 7,10 14,21 19,32 6,12 11,23 15,36 4,11 7,24 9,37 2,12 3,25 3,37 0,17 -2,33 -5,48 -3,16 -8,31 -14,46 -6,15 -14,29 -23,42 -9,14 -19,26 -30,38 -11,11 -24,21 -37,30 -14,9 -28,17 -43,23l0 0c-14,6 -30,10 -46,14 -15,3 -31,4 -47,4l-12 0 -11 0 -1 1c-2,3 -4,5 -6,7l0 0c-2,3 -5,6 -8,9 -2,3 -5,6 -8,9l0 0c-12,12 -25,23 -39,32 -14,9 -29,17 -44,24 -16,6 -32,11 -48,14 -17,4 -33,5 -50,5l-12 0 -14 0 0 0 -1196 0 0 0 -14 0 -11 0c-22,0 -43,-2 -64,-6 -21,-4 -42,-10 -61,-19 -20,-8 -39,-18 -57,-30 -18,-12 -35,-26 -50,-41l0 0c-15,-15 -29,-31 -41,-49 -11,-18 -22,-37 -30,-57 -8,-20 -14,-40 -18,-61 -5,-21 -7,-42 -7,-64 0,-22 2,-43 7,-64 4,-21 10,-42 18,-61 8,-20 19,-39 30,-57 13,-18 26,-35 41,-50 14,-13 29,-26 45,-37 15,-11 32,-21 50,-29 15,-7 32,-13 49,-18 13,-4 27,-6 41,-8 3,-20 7,-39 12,-58 7,-22 15,-44 25,-64 11,-23 24,-44 39,-64 14,-20 31,-39 48,-56 20,-19 41,-36 64,-51 22,-14 46,-27 71,-37 25,-10 51,-18 78,-23 26,-5 53,-8 80,-8 19,0 39,2 58,4l0 0c19,3 38,7 57,12 17,5 34,11 50,18 12,5 24,11 35,17z"/>
 </g>
</svg>
