<?xml version="1.0" encoding="utf-8"?>
<!-- Generator: Adobe Illustrator 21.0.0, SVG Export Plug-In . SVG Version: 6.00 Build 0)  -->
<svg version="1.1" id="Layer_1" xmlns="http://www.w3.org/2000/svg" xmlns:xlink="http://www.w3.org/1999/xlink" x="0px" y="0px"
	 viewBox="0 0 246 52" style="enable-background:new 0 0 246 52;" xml:space="preserve">
<style type="text/css">
	.st0{fill:#09091A;}
</style>
<g id="Layer_2">
	<g id="Layer_1-2">
		<path class="st0" d="M38.7,1.4v28.3c0,9.5-4.2,13.4-14,13.4s-14-3.9-14-13.4V0.2H1.2C0.6,0.1,0.1,0.5,0,1.1c0,0.1,0,0.2,0,0.3
			v28.8C0,46,10.1,51.6,24.7,51.6S49.4,46,49.4,30.2v-30h-9.4c-0.6-0.1-1.2,0.3-1.2,0.9C38.7,1.2,38.7,1.3,38.7,1.4z"/>
		<path class="st0" d="M175.8,8.4c0.6,0.1,1.2-0.3,1.4-0.8l2.8-6.8c0.2-0.4,0-0.6-0.4-0.6h-38c-3.6,0-4.9,1.1-4.9,3.5v44
			c0,2.1,1,3,3.8,3h35.5c0.6,0.1,1.2-0.3,1.4-0.8l2.7-6.8c0.2-0.4,0-0.6-0.4-0.6H147v-9c0-3.1,1.7-4.5,6.3-4.5h14
			c0.6,0.1,1.2-0.3,1.4-0.8l2.6-6.5c0.2-0.4,0-0.6-0.4-0.6H147V8.4H175.8z"/>
		<path class="st0" d="M108.7,24.1c4.1-2.2,5.8-6.2,5.8-11.1c0-11.1-9.1-12.8-18.5-12.8H74.6c-3.6,0-4.9,1.1-4.9,3.5v44
			c0,2.1,1,3,3.8,3h26.5c10,0,17.1-3.9,17.1-13.9C117,30.7,114.4,25.6,108.7,24.1z M80.1,8.2h16.7c5.6,0,7.1,2.1,7.1,6.5
			s-1.5,6.5-7.1,6.5H80.1V8.2z M98.8,42.6H80.1v-9.3c0-3.1,1.7-4.5,6.3-4.5h12.4c5.9,0,7.6,2.3,7.6,6.9
			C106.4,40.4,104.7,42.7,98.8,42.6L98.8,42.6z"/>
		<path class="st0" d="M245.9,49.8l-11.3-19.4c5.6-1.5,10.2-5.2,10.2-14.6c0-12.2-7.6-15.5-20.1-15.5h-21.6c-3.6,0-4.9,1.1-4.9,3.5
			v45.7c-0.1,0.6,0.3,1.1,0.9,1.2c0.1,0,0.2,0,0.3,0h9.2V35.9c0-3.1,1.7-4.5,6.3-4.5h9.3l10.2,18.4c0.2,0.5,0.8,0.9,1.4,0.8h9.6
			C246.1,50.6,246.1,50.1,245.9,49.8z M226.2,23.6h-17.7V8.3h17.6c6.6,0,8,2.5,8,7.7S232.7,23.6,226.2,23.6L226.2,23.6z"/>
	</g>
</g>
</svg>
